<svg width="82" height="30" viewBox="0 0 82 30" fill="none" xmlns="http://www.w3.org/2000/svg">
<path d="M15.72 29.4C12.8933 29.4 10.3333 28.7867 8.04 27.56C5.77333 26.3067 3.98667 24.5867 2.68 22.4C1.4 20.2133 0.76 17.7467 0.76 15C0.76 12.2533 1.41333 9.78667 2.72 7.6C4.02667 5.41333 5.81333 3.70666 8.08 2.48C10.3733 1.22667 12.9333 0.599998 15.76 0.599998C18.0533 0.599998 20.1467 0.999999 22.04 1.8C23.9333 2.6 25.5333 3.76 26.84 5.28L23.48 8.44C21.4533 6.25333 18.96 5.16 16 5.16C14.08 5.16 12.36 5.58667 10.84 6.44C9.32 7.26667 8.13333 8.42666 7.28 9.92C6.42667 11.4133 6 13.1067 6 15C6 16.8933 6.42667 18.5867 7.28 20.08C8.13333 21.5733 9.32 22.7467 10.84 23.6C12.36 24.4267 14.08 24.84 16 24.84C18.96 24.84 21.4533 23.7333 23.48 21.52L26.84 24.72C25.5333 26.24 23.92 27.4 22 28.2C20.1067 29 18.0133 29.4 15.72 29.4ZM49.3966 22.52H35.3966L32.6366 29H27.2766L39.8766 0.999998H44.9966L57.6366 29H52.1966L49.3966 22.52ZM47.6766 18.44L42.3966 6.2L37.1566 18.44H47.6766ZM69.8775 29.4C67.7175 29.4 65.6242 29.0933 63.5975 28.48C61.5975 27.8667 60.0108 27.0533 58.8375 26.04L60.6375 22C61.7842 22.9067 63.1842 23.6533 64.8375 24.24C66.5175 24.8 68.1975 25.08 69.8775 25.08C71.9575 25.08 73.5042 24.7467 74.5175 24.08C75.5575 23.4133 76.0775 22.5333 76.0775 21.44C76.0775 20.64 75.7842 19.9867 75.1975 19.48C74.6375 18.9467 73.9175 18.5333 73.0375 18.24C72.1575 17.9467 70.9575 17.6133 69.4375 17.24C67.3042 16.7333 65.5708 16.2267 64.2375 15.72C62.9308 15.2133 61.7975 14.4267 60.8375 13.36C59.9042 12.2667 59.4375 10.8 59.4375 8.96C59.4375 7.41333 59.8508 6.01333 60.6775 4.76C61.5308 3.48 62.7975 2.46666 64.4775 1.72C66.1842 0.973332 68.2642 0.599998 70.7175 0.599998C72.4242 0.599998 74.1042 0.813332 75.7575 1.24C77.4108 1.66667 78.8375 2.28 80.0375 3.08L78.3975 7.12C77.1708 6.4 75.8908 5.85333 74.5575 5.48C73.2242 5.10667 71.9308 4.92 70.6775 4.92C68.6242 4.92 67.0908 5.26666 66.0775 5.96C65.0908 6.65333 64.5975 7.57333 64.5975 8.72C64.5975 9.52 64.8775 10.1733 65.4375 10.68C66.0242 11.1867 66.7575 11.5867 67.6375 11.88C68.5175 12.1733 69.7175 12.5067 71.2375 12.88C73.3175 13.36 75.0242 13.8667 76.3575 14.4C77.6908 14.9067 78.8242 15.6933 79.7575 16.76C80.7175 17.8267 81.1975 19.2667 81.1975 21.08C81.1975 22.6267 80.7708 24.0267 79.9175 25.28C79.0908 26.5333 77.8242 27.5333 76.1175 28.28C74.4108 29.0267 72.3308 29.4 69.8775 29.4Z" fill="white"/>
</svg>
