<svg width="533" height="171" viewBox="0 0 533 171" fill="none" xmlns="http://www.w3.org/2000/svg">
<g filter="url(#filter0_d)">
<path d="M46.2 106.66C38.5733 106.66 31.6433 104.973 25.41 101.6C19.25 98.1533 14.41 93.46 10.89 87.52C7.44333 81.58 5.72 74.9067 5.72 67.5C5.72 60.0933 7.44333 53.42 10.89 47.48C14.41 41.54 19.25 36.8833 25.41 33.51C31.6433 30.0633 38.5733 28.34 46.2 28.34C53.8267 28.34 60.6833 30.0267 66.77 33.4C72.93 36.7733 77.77 41.4667 81.29 47.48C84.81 53.42 86.57 60.0933 86.57 67.5C86.57 74.9067 84.81 81.6167 81.29 87.63C77.77 93.57 72.93 98.2267 66.77 101.6C60.6833 104.973 53.8267 106.66 46.2 106.66ZM46.2 99.4C52.2867 99.4 57.7867 98.0433 62.7 95.33C67.6133 92.5433 71.4633 88.73 74.25 83.89C77.0367 78.9767 78.43 73.5133 78.43 67.5C78.43 61.4867 77.0367 56.06 74.25 51.22C71.4633 46.3067 67.6133 42.4933 62.7 39.78C57.7867 36.9933 52.2867 35.6 46.2 35.6C40.1133 35.6 34.5767 36.9933 29.59 39.78C24.6767 42.4933 20.79 46.3067 17.93 51.22C15.1433 56.06 13.75 61.4867 13.75 67.5C13.75 73.5133 15.1433 78.9767 17.93 83.89C20.79 88.73 24.6767 92.5433 29.59 95.33C34.5767 98.0433 40.1133 99.4 46.2 99.4ZM132.645 47.7C139.905 47.7 145.662 49.8267 149.915 54.08C154.242 58.26 156.405 64.3833 156.405 72.45V106H148.595V73.22C148.595 67.2067 147.092 62.6233 144.085 59.47C141.079 56.3167 136.789 54.74 131.215 54.74C124.982 54.74 120.032 56.61 116.365 60.35C112.772 64.0167 110.975 69.1133 110.975 75.64V106H103.165V48.14H110.645V58.81C112.772 55.29 115.705 52.5767 119.445 50.67C123.259 48.69 127.659 47.7 132.645 47.7ZM228.204 79.49H179.804C180.244 85.5033 182.554 90.38 186.734 94.12C190.914 97.7867 196.194 99.62 202.574 99.62C206.167 99.62 209.467 98.9967 212.474 97.75C215.48 96.43 218.084 94.5233 220.284 92.03L224.684 97.09C222.117 100.17 218.89 102.517 215.004 104.13C211.19 105.743 206.974 106.55 202.354 106.55C196.414 106.55 191.134 105.303 186.514 102.81C181.967 100.243 178.41 96.7233 175.844 92.25C173.277 87.7767 171.994 82.7167 171.994 77.07C171.994 71.4233 173.204 66.3633 175.624 61.89C178.117 57.4167 181.49 53.9333 185.744 51.44C190.07 48.9467 194.91 47.7 200.264 47.7C205.617 47.7 210.42 48.9467 214.674 51.44C218.927 53.9333 222.264 57.4167 224.684 61.89C227.104 66.29 228.314 71.35 228.314 77.07L228.204 79.49ZM200.264 54.41C194.69 54.41 189.997 56.2067 186.184 59.8C182.444 63.32 180.317 67.94 179.804 73.66H220.834C220.32 67.94 218.157 63.32 214.344 59.8C210.604 56.2067 205.91 54.41 200.264 54.41ZM316.48 29L283.15 106H265.55L232.33 29H251.58L275.01 84L298.77 29H316.48ZM322.774 46.82H339.934V106H322.774V46.82ZM331.354 38.57C328.2 38.57 325.634 37.6533 323.654 35.82C321.674 33.9867 320.684 31.7133 320.684 29C320.684 26.2867 321.674 24.0133 323.654 22.18C325.634 20.3467 328.2 19.43 331.354 19.43C334.507 19.43 337.074 20.31 339.054 22.07C341.034 23.83 342.024 26.03 342.024 28.67C342.024 31.53 341.034 33.9133 339.054 35.82C337.074 37.6533 334.507 38.57 331.354 38.57ZM413.829 76.63C413.829 76.85 413.719 78.39 413.499 81.25H368.729C369.536 84.9167 371.443 87.8133 374.449 89.94C377.456 92.0667 381.196 93.13 385.669 93.13C388.749 93.13 391.463 92.69 393.809 91.81C396.229 90.8567 398.466 89.39 400.519 87.41L409.649 97.31C404.076 103.69 395.936 106.88 385.229 106.88C378.556 106.88 372.653 105.597 367.519 103.03C362.386 100.39 358.426 96.76 355.639 92.14C352.853 87.52 351.459 82.2767 351.459 76.41C351.459 70.6167 352.816 65.41 355.529 60.79C358.316 56.0967 362.093 52.4667 366.859 49.9C371.699 47.26 377.089 45.94 383.029 45.94C388.823 45.94 394.066 47.1867 398.759 49.68C403.453 52.1733 407.119 55.7667 409.759 60.46C412.473 65.08 413.829 70.47 413.829 76.63ZM383.139 58.92C379.253 58.92 375.989 60.02 373.349 62.22C370.709 64.42 369.096 67.4267 368.509 71.24H397.659C397.073 67.5 395.459 64.53 392.819 62.33C390.179 60.0567 386.953 58.92 383.139 58.92ZM519.22 46.82L497.77 106H481.27L467.96 69.26L454.21 106H437.71L416.37 46.82H432.54L446.51 86.86L461.03 46.82H475.55L489.63 86.86L504.04 46.82H519.22Z" fill="#FAFAFA"/>
</g>
<path d="M19.6772 142.012H11.5592V139.9H30.2372V142.012H22.1192V163H19.6772V142.012ZM42.4875 145.51C44.6655 145.51 46.3925 146.148 47.6685 147.424C48.9665 148.678 49.6155 150.515 49.6155 152.935V163H47.2725V153.166C47.2725 151.362 46.8215 149.987 45.9195 149.041C45.0175 148.095 43.7305 147.622 42.0585 147.622C40.1885 147.622 38.7035 148.183 37.6035 149.305C36.5255 150.405 35.9865 151.934 35.9865 153.892V163H33.6435V138.514H35.9865V148.678C36.6245 147.666 37.5045 146.885 38.6265 146.335C39.7485 145.785 41.0355 145.51 42.4875 145.51ZM71.1549 155.047H56.6349C56.7669 156.851 57.4599 158.314 58.7139 159.436C59.9679 160.536 61.5519 161.086 63.4659 161.086C64.5439 161.086 65.5339 160.899 66.4359 160.525C67.3379 160.129 68.1189 159.557 68.7789 158.809L70.0989 160.327C69.3289 161.251 68.3609 161.955 67.1949 162.439C66.0509 162.923 64.7859 163.165 63.3999 163.165C61.6179 163.165 60.0339 162.791 58.6479 162.043C57.2839 161.273 56.2169 160.217 55.4469 158.875C54.6769 157.533 54.2919 156.015 54.2919 154.321C54.2919 152.627 54.6549 151.109 55.3809 149.767C56.1289 148.425 57.1409 147.38 58.4169 146.632C59.7149 145.884 61.1669 145.51 62.7729 145.51C64.3789 145.51 65.8199 145.884 67.0959 146.632C68.3719 147.38 69.3729 148.425 70.0989 149.767C70.8249 151.087 71.1879 152.605 71.1879 154.321L71.1549 155.047ZM62.7729 147.523C61.1009 147.523 59.6929 148.062 58.5489 149.14C57.4269 150.196 56.7889 151.582 56.6349 153.298H68.9439C68.7899 151.582 68.1409 150.196 66.9969 149.14C65.8749 148.062 64.4669 147.523 62.7729 147.523ZM91.7877 163.165C90.0717 163.165 88.5317 162.791 87.1677 162.043C85.8257 161.295 84.7697 160.25 83.9997 158.908C83.2297 157.544 82.8447 156.015 82.8447 154.321C82.8447 152.627 83.2297 151.109 83.9997 149.767C84.7697 148.425 85.8257 147.38 87.1677 146.632C88.5317 145.884 90.0717 145.51 91.7877 145.51C93.2837 145.51 94.6147 145.807 95.7807 146.401C96.9687 146.973 97.9037 147.82 98.5857 148.942L96.8367 150.13C96.2647 149.272 95.5387 148.634 94.6587 148.216C93.7787 147.776 92.8217 147.556 91.7877 147.556C90.5337 147.556 89.4007 147.842 88.3887 148.414C87.3987 148.964 86.6177 149.756 86.0457 150.79C85.4957 151.824 85.2207 153.001 85.2207 154.321C85.2207 155.663 85.4957 156.851 86.0457 157.885C86.6177 158.897 87.3987 159.689 88.3887 160.261C89.4007 160.811 90.5337 161.086 91.7877 161.086C92.8217 161.086 93.7787 160.877 94.6587 160.459C95.5387 160.041 96.2647 159.403 96.8367 158.545L98.5857 159.733C97.9037 160.855 96.9687 161.713 95.7807 162.307C94.5927 162.879 93.2617 163.165 91.7877 163.165ZM109.993 163.165C108.321 163.165 106.814 162.791 105.472 162.043C104.13 161.273 103.074 160.217 102.304 158.875C101.534 157.533 101.149 156.015 101.149 154.321C101.149 152.627 101.534 151.109 102.304 149.767C103.074 148.425 104.13 147.38 105.472 146.632C106.814 145.884 108.321 145.51 109.993 145.51C111.665 145.51 113.172 145.884 114.514 146.632C115.856 147.38 116.901 148.425 117.649 149.767C118.419 151.109 118.804 152.627 118.804 154.321C118.804 156.015 118.419 157.533 117.649 158.875C116.901 160.217 115.856 161.273 114.514 162.043C113.172 162.791 111.665 163.165 109.993 163.165ZM109.993 161.086C111.225 161.086 112.325 160.811 113.293 160.261C114.283 159.689 115.053 158.886 115.603 157.852C116.153 156.818 116.428 155.641 116.428 154.321C116.428 153.001 116.153 151.824 115.603 150.79C115.053 149.756 114.283 148.964 113.293 148.414C112.325 147.842 111.225 147.556 109.993 147.556C108.761 147.556 107.65 147.842 106.66 148.414C105.692 148.964 104.922 149.756 104.35 150.79C103.8 151.824 103.525 153.001 103.525 154.321C103.525 155.641 103.8 156.818 104.35 157.852C104.922 158.886 105.692 159.689 106.66 160.261C107.65 160.811 108.761 161.086 109.993 161.086ZM145.236 145.51C147.414 145.51 149.119 146.137 150.351 147.391C151.605 148.645 152.232 150.493 152.232 152.935V163H149.889V153.166C149.889 151.362 149.449 149.987 148.569 149.041C147.711 148.095 146.49 147.622 144.906 147.622C143.102 147.622 141.683 148.183 140.649 149.305C139.615 150.405 139.098 151.934 139.098 153.892V163H136.755V153.166C136.755 151.362 136.315 149.987 135.435 149.041C134.577 148.095 133.345 147.622 131.739 147.622C129.957 147.622 128.538 148.183 127.482 149.305C126.448 150.405 125.931 151.934 125.931 153.892V163H123.588V145.642H125.832V148.81C126.448 147.754 127.306 146.94 128.406 146.368C129.506 145.796 130.771 145.51 132.201 145.51C133.653 145.51 134.907 145.818 135.963 146.434C137.041 147.05 137.844 147.963 138.372 149.173C139.01 148.029 139.923 147.138 141.111 146.5C142.321 145.84 143.696 145.51 145.236 145.51ZM167.529 145.51C169.157 145.51 170.631 145.884 171.951 146.632C173.271 147.358 174.305 148.392 175.053 149.734C175.801 151.076 176.175 152.605 176.175 154.321C176.175 156.059 175.801 157.599 175.053 158.941C174.305 160.283 173.271 161.328 171.951 162.076C170.653 162.802 169.179 163.165 167.529 163.165C166.121 163.165 164.845 162.879 163.701 162.307C162.579 161.713 161.655 160.855 160.929 159.733V169.402H158.586V145.642H160.83V149.074C161.534 147.93 162.458 147.05 163.602 146.434C164.768 145.818 166.077 145.51 167.529 145.51ZM167.364 161.086C168.574 161.086 169.674 160.811 170.664 160.261C171.654 159.689 172.424 158.886 172.974 157.852C173.546 156.818 173.832 155.641 173.832 154.321C173.832 153.001 173.546 151.835 172.974 150.823C172.424 149.789 171.654 148.986 170.664 148.414C169.674 147.842 168.574 147.556 167.364 147.556C166.132 147.556 165.021 147.842 164.031 148.414C163.063 148.986 162.293 149.789 161.721 150.823C161.171 151.835 160.896 153.001 160.896 154.321C160.896 155.641 161.171 156.818 161.721 157.852C162.293 158.886 163.063 159.689 164.031 160.261C165.021 160.811 166.132 161.086 167.364 161.086ZM180.951 138.514H183.294V163H180.951V138.514ZM195.885 145.51C198.151 145.51 199.889 146.082 201.099 147.226C202.309 148.348 202.914 150.02 202.914 152.242V163H200.67V160.294C200.142 161.196 199.361 161.9 198.327 162.406C197.315 162.912 196.105 163.165 194.697 163.165C192.761 163.165 191.221 162.703 190.077 161.779C188.933 160.855 188.361 159.634 188.361 158.116C188.361 156.642 188.889 155.454 189.945 154.552C191.023 153.65 192.728 153.199 195.06 153.199H200.571V152.143C200.571 150.647 200.153 149.514 199.317 148.744C198.481 147.952 197.26 147.556 195.654 147.556C194.554 147.556 193.498 147.743 192.486 148.117C191.474 148.469 190.605 148.964 189.879 149.602L188.823 147.853C189.703 147.105 190.759 146.533 191.991 146.137C193.223 145.719 194.521 145.51 195.885 145.51ZM195.06 161.317C196.38 161.317 197.513 161.02 198.459 160.426C199.405 159.81 200.109 158.93 200.571 157.786V154.948H195.126C192.156 154.948 190.671 155.982 190.671 158.05C190.671 159.062 191.056 159.865 191.826 160.459C192.596 161.031 193.674 161.317 195.06 161.317ZM209.278 145.642H211.621V163H209.278V145.642ZM210.466 141.847C209.982 141.847 209.575 141.682 209.245 141.352C208.915 141.022 208.75 140.626 208.75 140.164C208.75 139.724 208.915 139.339 209.245 139.009C209.575 138.679 209.982 138.514 210.466 138.514C210.95 138.514 211.357 138.679 211.687 139.009C212.017 139.317 212.182 139.691 212.182 140.131C212.182 140.615 212.017 141.022 211.687 141.352C211.357 141.682 210.95 141.847 210.466 141.847ZM226.985 145.51C229.163 145.51 230.89 146.148 232.166 147.424C233.464 148.678 234.113 150.515 234.113 152.935V163H231.77V153.166C231.77 151.362 231.319 149.987 230.417 149.041C229.515 148.095 228.228 147.622 226.556 147.622C224.686 147.622 223.201 148.183 222.101 149.305C221.023 150.405 220.484 151.934 220.484 153.892V163H218.141V145.642H220.385V148.843C221.023 147.787 221.903 146.973 223.025 146.401C224.169 145.807 225.489 145.51 226.985 145.51ZM249.615 161.944C249.175 162.34 248.625 162.648 247.965 162.868C247.327 163.066 246.656 163.165 245.952 163.165C244.324 163.165 243.07 162.725 242.19 161.845C241.31 160.965 240.87 159.722 240.87 158.116V147.622H237.768V145.642H240.87V141.847H243.213V145.642H248.493V147.622H243.213V157.984C243.213 159.018 243.466 159.81 243.972 160.36C244.5 160.888 245.248 161.152 246.216 161.152C246.7 161.152 247.162 161.075 247.602 160.921C248.064 160.767 248.46 160.547 248.79 160.261L249.615 161.944ZM277.499 156.829H264.629L261.857 163H259.316L269.876 139.9H272.285L282.845 163H280.271L277.499 156.829ZM276.608 154.849L271.064 142.441L265.52 154.849H276.608ZM295.015 145.51C297.193 145.51 298.92 146.148 300.196 147.424C301.494 148.678 302.143 150.515 302.143 152.935V163H299.8V153.166C299.8 151.362 299.349 149.987 298.447 149.041C297.545 148.095 296.258 147.622 294.586 147.622C292.716 147.622 291.231 148.183 290.131 149.305C289.053 150.405 288.514 151.934 288.514 153.892V163H286.171V145.642H288.415V148.843C289.053 147.787 289.933 146.973 291.055 146.401C292.199 145.807 293.519 145.51 295.015 145.51ZM314.576 145.51C316.842 145.51 318.58 146.082 319.79 147.226C321 148.348 321.605 150.02 321.605 152.242V163H319.361V160.294C318.833 161.196 318.052 161.9 317.018 162.406C316.006 162.912 314.796 163.165 313.388 163.165C311.452 163.165 309.912 162.703 308.768 161.779C307.624 160.855 307.052 159.634 307.052 158.116C307.052 156.642 307.58 155.454 308.636 154.552C309.714 153.65 311.419 153.199 313.751 153.199H319.262V152.143C319.262 150.647 318.844 149.514 318.008 148.744C317.172 147.952 315.951 147.556 314.345 147.556C313.245 147.556 312.189 147.743 311.177 148.117C310.165 148.469 309.296 148.964 308.57 149.602L307.514 147.853C308.394 147.105 309.45 146.533 310.682 146.137C311.914 145.719 313.212 145.51 314.576 145.51ZM313.751 161.317C315.071 161.317 316.204 161.02 317.15 160.426C318.096 159.81 318.8 158.93 319.262 157.786V154.948H313.817C310.847 154.948 309.362 155.982 309.362 158.05C309.362 159.062 309.747 159.865 310.517 160.459C311.287 161.031 312.365 161.317 313.751 161.317ZM327.969 138.514H330.312V163H327.969V138.514ZM351.417 145.642L342.738 165.079C342.034 166.707 341.22 167.862 340.296 168.544C339.372 169.226 338.261 169.567 336.963 169.567C336.127 169.567 335.346 169.435 334.62 169.171C333.894 168.907 333.267 168.511 332.739 167.983L333.828 166.234C334.708 167.114 335.764 167.554 336.996 167.554C337.788 167.554 338.459 167.334 339.009 166.894C339.581 166.454 340.109 165.706 340.593 164.65L341.352 162.967L333.597 145.642H336.039L342.573 160.393L349.107 145.642H351.417ZM359.176 163.165C357.768 163.165 356.415 162.967 355.117 162.571C353.841 162.153 352.84 161.636 352.114 161.02L353.17 159.172C353.896 159.744 354.809 160.217 355.909 160.591C357.009 160.943 358.153 161.119 359.341 161.119C360.925 161.119 362.091 160.877 362.839 160.393C363.609 159.887 363.994 159.183 363.994 158.281C363.994 157.643 363.785 157.148 363.367 156.796C362.949 156.422 362.421 156.147 361.783 155.971C361.145 155.773 360.298 155.586 359.242 155.41C357.834 155.146 356.701 154.882 355.843 154.618C354.985 154.332 354.248 153.859 353.632 153.199C353.038 152.539 352.741 151.626 352.741 150.46C352.741 149.008 353.346 147.82 354.556 146.896C355.766 145.972 357.449 145.51 359.605 145.51C360.727 145.51 361.849 145.664 362.971 145.972C364.093 146.258 365.017 146.643 365.743 147.127L364.72 149.008C363.29 148.018 361.585 147.523 359.605 147.523C358.109 147.523 356.976 147.787 356.206 148.315C355.458 148.843 355.084 149.536 355.084 150.394C355.084 151.054 355.293 151.582 355.711 151.978C356.151 152.374 356.69 152.671 357.328 152.869C357.966 153.045 358.846 153.232 359.968 153.43C361.354 153.694 362.465 153.958 363.301 154.222C364.137 154.486 364.852 154.937 365.446 155.575C366.04 156.213 366.337 157.093 366.337 158.215C366.337 159.733 365.699 160.943 364.423 161.845C363.169 162.725 361.42 163.165 359.176 163.165ZM370.669 145.642H373.012V163H370.669V145.642ZM371.857 141.847C371.373 141.847 370.966 141.682 370.636 141.352C370.306 141.022 370.141 140.626 370.141 140.164C370.141 139.724 370.306 139.339 370.636 139.009C370.966 138.679 371.373 138.514 371.857 138.514C372.341 138.514 372.748 138.679 373.078 139.009C373.408 139.317 373.573 139.691 373.573 140.131C373.573 140.615 373.408 141.022 373.078 141.352C372.748 141.682 372.341 141.847 371.857 141.847ZM384.184 163.165C382.776 163.165 381.423 162.967 380.125 162.571C378.849 162.153 377.848 161.636 377.122 161.02L378.178 159.172C378.904 159.744 379.817 160.217 380.917 160.591C382.017 160.943 383.161 161.119 384.349 161.119C385.933 161.119 387.099 160.877 387.847 160.393C388.617 159.887 389.002 159.183 389.002 158.281C389.002 157.643 388.793 157.148 388.375 156.796C387.957 156.422 387.429 156.147 386.791 155.971C386.153 155.773 385.306 155.586 384.25 155.41C382.842 155.146 381.709 154.882 380.851 154.618C379.993 154.332 379.256 153.859 378.64 153.199C378.046 152.539 377.749 151.626 377.749 150.46C377.749 149.008 378.354 147.82 379.564 146.896C380.774 145.972 382.457 145.51 384.613 145.51C385.735 145.51 386.857 145.664 387.979 145.972C389.101 146.258 390.025 146.643 390.751 147.127L389.728 149.008C388.298 148.018 386.593 147.523 384.613 147.523C383.117 147.523 381.984 147.787 381.214 148.315C380.466 148.843 380.092 149.536 380.092 150.394C380.092 151.054 380.301 151.582 380.719 151.978C381.159 152.374 381.698 152.671 382.336 152.869C382.974 153.045 383.854 153.232 384.976 153.43C386.362 153.694 387.473 153.958 388.309 154.222C389.145 154.486 389.86 154.937 390.454 155.575C391.048 156.213 391.345 157.093 391.345 158.215C391.345 159.733 390.707 160.943 389.431 161.845C388.177 162.725 386.428 163.165 384.184 163.165ZM411.177 163.198C409.461 163.198 407.811 162.923 406.227 162.373C404.665 161.823 403.455 161.097 402.597 160.195L403.554 158.314C404.39 159.15 405.501 159.832 406.887 160.36C408.273 160.866 409.703 161.119 411.177 161.119C413.245 161.119 414.796 160.745 415.83 159.997C416.864 159.227 417.381 158.237 417.381 157.027C417.381 156.103 417.095 155.366 416.523 154.816C415.973 154.266 415.291 153.848 414.477 153.562C413.663 153.254 412.53 152.924 411.078 152.572C409.34 152.132 407.954 151.714 406.92 151.318C405.886 150.9 404.995 150.273 404.247 149.437C403.521 148.601 403.158 147.468 403.158 146.038C403.158 144.872 403.466 143.816 404.082 142.87C404.698 141.902 405.644 141.132 406.92 140.56C408.196 139.988 409.78 139.702 411.672 139.702C412.992 139.702 414.279 139.889 415.533 140.263C416.809 140.615 417.909 141.11 418.833 141.748L418.008 143.695C417.04 143.057 416.006 142.584 414.906 142.276C413.806 141.946 412.728 141.781 411.672 141.781C409.648 141.781 408.119 142.177 407.085 142.969C406.073 143.739 405.567 144.74 405.567 145.972C405.567 146.896 405.842 147.644 406.392 148.216C406.964 148.766 407.668 149.195 408.504 149.503C409.362 149.789 410.506 150.108 411.936 150.46C413.63 150.878 414.994 151.296 416.028 151.714C417.084 152.11 417.975 152.726 418.701 153.562C419.427 154.376 419.79 155.487 419.79 156.895C419.79 158.061 419.471 159.128 418.833 160.096C418.217 161.042 417.26 161.801 415.962 162.373C414.664 162.923 413.069 163.198 411.177 163.198ZM438.88 145.642L430.201 165.079C429.497 166.707 428.683 167.862 427.759 168.544C426.835 169.226 425.724 169.567 424.426 169.567C423.59 169.567 422.809 169.435 422.083 169.171C421.357 168.907 420.73 168.511 420.202 167.983L421.291 166.234C422.171 167.114 423.227 167.554 424.459 167.554C425.251 167.554 425.922 167.334 426.472 166.894C427.044 166.454 427.572 165.706 428.056 164.65L428.815 162.967L421.06 145.642H423.502L430.036 160.393L436.57 145.642H438.88ZM446.639 163.165C445.231 163.165 443.878 162.967 442.58 162.571C441.304 162.153 440.303 161.636 439.577 161.02L440.633 159.172C441.359 159.744 442.272 160.217 443.372 160.591C444.472 160.943 445.616 161.119 446.804 161.119C448.388 161.119 449.554 160.877 450.302 160.393C451.072 159.887 451.457 159.183 451.457 158.281C451.457 157.643 451.248 157.148 450.83 156.796C450.412 156.422 449.884 156.147 449.246 155.971C448.608 155.773 447.761 155.586 446.705 155.41C445.297 155.146 444.164 154.882 443.306 154.618C442.448 154.332 441.711 153.859 441.095 153.199C440.501 152.539 440.204 151.626 440.204 150.46C440.204 149.008 440.809 147.82 442.019 146.896C443.229 145.972 444.912 145.51 447.068 145.51C448.19 145.51 449.312 145.664 450.434 145.972C451.556 146.258 452.48 146.643 453.206 147.127L452.183 149.008C450.753 148.018 449.048 147.523 447.068 147.523C445.572 147.523 444.439 147.787 443.669 148.315C442.921 148.843 442.547 149.536 442.547 150.394C442.547 151.054 442.756 151.582 443.174 151.978C443.614 152.374 444.153 152.671 444.791 152.869C445.429 153.045 446.309 153.232 447.431 153.43C448.817 153.694 449.928 153.958 450.764 154.222C451.6 154.486 452.315 154.937 452.909 155.575C453.503 156.213 453.8 157.093 453.8 158.215C453.8 159.733 453.162 160.943 451.886 161.845C450.632 162.725 448.883 163.165 446.639 163.165ZM467.273 161.944C466.833 162.34 466.283 162.648 465.623 162.868C464.985 163.066 464.314 163.165 463.61 163.165C461.982 163.165 460.728 162.725 459.848 161.845C458.968 160.965 458.528 159.722 458.528 158.116V147.622H455.426V145.642H458.528V141.847H460.871V145.642H466.151V147.622H460.871V157.984C460.871 159.018 461.124 159.81 461.63 160.36C462.158 160.888 462.906 161.152 463.874 161.152C464.358 161.152 464.82 161.075 465.26 160.921C465.722 160.767 466.118 160.547 466.448 160.261L467.273 161.944ZM486.04 155.047H471.52C471.652 156.851 472.345 158.314 473.599 159.436C474.853 160.536 476.437 161.086 478.351 161.086C479.429 161.086 480.419 160.899 481.321 160.525C482.223 160.129 483.004 159.557 483.664 158.809L484.984 160.327C484.214 161.251 483.246 161.955 482.08 162.439C480.936 162.923 479.671 163.165 478.285 163.165C476.503 163.165 474.919 162.791 473.533 162.043C472.169 161.273 471.102 160.217 470.332 158.875C469.562 157.533 469.177 156.015 469.177 154.321C469.177 152.627 469.54 151.109 470.266 149.767C471.014 148.425 472.026 147.38 473.302 146.632C474.6 145.884 476.052 145.51 477.658 145.51C479.264 145.51 480.705 145.884 481.981 146.632C483.257 147.38 484.258 148.425 484.984 149.767C485.71 151.087 486.073 152.605 486.073 154.321L486.04 155.047ZM477.658 147.523C475.986 147.523 474.578 148.062 473.434 149.14C472.312 150.196 471.674 151.582 471.52 153.298H483.829C483.675 151.582 483.026 150.196 481.882 149.14C480.76 148.062 479.352 147.523 477.658 147.523ZM512.49 145.51C514.668 145.51 516.373 146.137 517.605 147.391C518.859 148.645 519.486 150.493 519.486 152.935V163H517.143V153.166C517.143 151.362 516.703 149.987 515.823 149.041C514.965 148.095 513.744 147.622 512.16 147.622C510.356 147.622 508.937 148.183 507.903 149.305C506.869 150.405 506.352 151.934 506.352 153.892V163H504.009V153.166C504.009 151.362 503.569 149.987 502.689 149.041C501.831 148.095 500.599 147.622 498.993 147.622C497.211 147.622 495.792 148.183 494.736 149.305C493.702 150.405 493.185 151.934 493.185 153.892V163H490.842V145.642H493.086V148.81C493.702 147.754 494.56 146.94 495.66 146.368C496.76 145.796 498.025 145.51 499.455 145.51C500.907 145.51 502.161 145.818 503.217 146.434C504.295 147.05 505.098 147.963 505.626 149.173C506.264 148.029 507.177 147.138 508.365 146.5C509.575 145.84 510.95 145.51 512.49 145.51Z" fill="#FAFAFA"/>
<defs>
<filter id="filter0_d" x="1.71997" y="19.4301" width="521.5" height="95.45" filterUnits="userSpaceOnUse" color-interpolation-filters="sRGB">
<feFlood flood-opacity="0" result="BackgroundImageFix"/>
<feColorMatrix in="SourceAlpha" type="matrix" values="0 0 0 0 0 0 0 0 0 0 0 0 0 0 0 0 0 0 127 0"/>
<feOffset dy="4"/>
<feGaussianBlur stdDeviation="2"/>
<feColorMatrix type="matrix" values="0 0 0 0 0 0 0 0 0 0 0 0 0 0 0 0 0 0 0.25 0"/>
<feBlend mode="normal" in2="BackgroundImageFix" result="effect1_dropShadow"/>
<feBlend mode="normal" in="SourceGraphic" in2="effect1_dropShadow" result="shape"/>
</filter>
</defs>
</svg>
